<svg xmlns="http://www.w3.org/2000/svg" width="375" height="677" viewBox="0 0 375 677"><rect width="100%" height="100%" fill="#333333"/><path fill="#FFFFFF" d="M146.815 290.875q0 20.51 10.6 31.27 10.59 10.76 30.09 10.76 10.17 0 18.13-3.22 7.97-3.22 13.39-8.81 5.43-5.6 8.22-13.22 2.8-7.63 2.8-16.45 0-10-3.05-17.88-3.05-7.88-8.65-13.3-5.59-5.43-13.3-8.31-7.71-2.88-16.87-2.88-9.49 0-17.12 3.14-7.62 3.13-13.05 8.72-5.42 5.6-8.3 13.31-2.89 7.71-2.89 16.87Zm-20.5 171.53 76.1-95.09q2.88-3.56 5.43-6.95 2.54-3.39 4.91-6.78-8.47 5.42-18.64 8.22-10.17 2.8-21.36 2.8-12.71 0-24.92-4.41-12.2-4.41-21.69-13.3-9.5-8.9-15.34-22.04-5.85-13.14-5.85-30.76 0-16.45 6.1-30.85 6.1-14.41 17.12-25.26 11.02-10.85 26.44-17.12 15.43-6.27 34.07-6.27 18.82 0 33.82 5.93 15 5.94 25.59 16.61 10.6 10.68 16.27 25.6 5.68 14.91 5.68 32.71 0 11.36-1.95 21.53-1.95 10.17-5.51 19.58-3.56 9.4-8.64 18.39-5.09 8.98-11.36 17.79l-56.1 80.01q-2.88 4.07-8.65 6.86-5.76 2.8-13.05 2.8h-38.47Z"/></svg>