<?xml version="1.0" encoding="utf-8"?>
<!-- Generator: Adobe Illustrator 26.2.1, SVG Export Plug-In . SVG Version: 6.00 Build 0)  -->
<svg version="1.1" id="Réteg_1" xmlns="http://www.w3.org/2000/svg" xmlns:xlink="http://www.w3.org/1999/xlink" x="0px" y="0px"
	 viewBox="0 0 4096 4096" style="enable-background:new 0 0 4096 4096;" xml:space="preserve">
<path d="M4827.9-141.4c-0.6,5.4-2.7,10.2-1.1,12.6c7.9,12.6,16.4,24.9,25.4,36.7c156.7,206.2,290.9,426.1,401.1,660.4
	c123.1,261.5,214.6,533.6,272.8,816.9c30.5,148.5,53.1,297.9,64.6,449.1c1.6,21.1,1.3,42.6,11.9,61.9c4.4-0.8,9.3-0.5,12.3-2.6
	c6.9-4.9,12.9-11.1,19.2-16.8c90.6-81.8,197.4-114.8,318.4-105.4c90.3,7,170.1,39.9,237.1,100.5c173.9,157.1,164.1,420.8-19.4,565.1
	c-86,67.6-185.2,93.9-294,84.4c-94.7-8.3-177-44.5-246.4-109.7c-6.1-5.7-13.1-10.6-19.9-15.5c-1.5-1.1-4.1-0.8-6.4-1.1
	c-11.2,11.8-10.5,27.1-11.9,41.7c-5,48.8-8.9,97.7-14.5,146.4c-23.5,208.1-66.6,412.2-126,613c-88.9,300.1-214.9,583.7-376.4,851.7
	c-58.4,96.9-121.4,190.7-188.5,281.7c-12.6,17.1-24.6,34.7-36.8,52.2c-3.4,4.8,0.6,14.8,5.8,14.8c27.7-0.1,55.4-1,83.1-0.3
	c81.3,2.1,154.8,28.1,220.5,75.5c97.9,70.7,150.1,167.9,156.9,287.4c4.2,74-16.1,143.9-56.5,206.6c-63.6,98.7-154.6,155.9-269.9,177
	c-94,17.2-182.9,2.6-266.9-40.7c-95.7-49.3-160-126.2-190.5-229.7c-7.2-24.4-9.5-50.2-13.9-75.3c-1.4-8.3-2.5-16.7-9.8-22.5
	c-16.2,2.5-24.6,15.9-35.1,26c-88.1,83.9-179.5,164.1-275.4,239.1c-417.5,326.7-883.3,554-1398.6,679.7
	c-124.4,30.4-250.1,54-376.8,71.5c-182.1,25.2-365.3,33.3-549.1,31.3c-111.1-1.2-221.9-6.6-332.2-18.5
	c-341.1-36.9-671.4-117.7-989.6-246.7C123.6,5383.2-258.3,5138.1-594,4821.2c-15.5-14.6-30.8-29.6-47-43.4
	c-3.9-3.4-11.2-2.8-17.7-4.2c-3.1,20.5-5.3,39.5-8.9,58.3c-27.1,138.9-107.6,235.2-238,287c-136.4,54.1-268.7,40.3-390.5-41.6
	c-217.9-146.6-222.4-463.2,5.6-615.1c61.6-41,129.8-64.1,204.3-65.9c25.6-0.6,51.2,1.1,76.8,1.1c5.8,0,13-1.1,16.9-4.6
	c6.1-5.3,0.7-11.8-2.8-16.8c-8.4-12.3-17.4-24.3-26.3-36.3c-214.2-287.7-382.3-600.2-504.9-937.2c-62.8-172.5-112.2-348.9-147.9-529
	c-23.2-117.2-42-235-53-354c-3.9-42.4-8.5-84.8-12.9-127.2c-0.6-6.2-10.1-10.5-14.6-6.6c-12.8,11.1-25.4,22.5-38.2,33.7
	c-147.4,128.3-375.4,131.9-526.3,13.1c-84.8-66.9-133.6-154.6-142.8-261.9c-8.6-100.2,21.9-189.7,87.1-266.4
	c63.4-74.4,144.6-117.3,240.8-134c108.3-18.8,207.6,3.9,299.5,62.1c17.9,11.4,33.2,26.6,50.4,39.2c12.9,9.4,18.8,29.4,39.7,26.9
	c10.7-12.6,6.9-28.1,7.9-42.3c5.6-83,16-165.6,27.7-247.8c22.7-160.6,56.5-319,101-475c125.7-441.7,327-846,603.3-1212.9
	c12.8-16.9,24.4-34.7,36.3-52.3c1-1.5,0.7-4.4-0.1-6.2c-0.6-1.4-3-3-4.4-2.9c-8.4,0.6-16.8,1.5-25.1,2.8
	c-82.4,12.5-161.8,1.4-237.4-33.1c-102.3-46.7-173.9-122.6-207.8-230.4c-32.4-103-21-202.7,34.2-295.8
	c50-84.2,123-141.2,216.3-170.1c139.9-43.4,270.4-22.8,387.1,66.7c87.7,67.2,133.3,158.8,143,268.5c1.1,12.7,1.5,25.4,3.4,38
	c0.3,2.2,8.2,5.8,9.5,4.8c11.8-8.9,23.5-18.2,34.2-28.4c168.3-161.5,350.2-305.8,545.9-432.6c361.4-234.3,752.3-399.1,1171.7-496.7
	c122.6-28.5,246.7-49.7,371.5-65.4c63.4-8,127.4-11.6,191.2-17.3c12.7-1.1,25.3-3,38-4.8c1.6-0.2,3.9-2.6,4.1-4.2
	c0.6-3.8,1.7-9.6-0.2-11.2c-14.7-12.3-30.8-23-45.2-35.6c-88.5-77.8-134.5-175.5-130.9-293.5c3.1-100.5,43.5-186.3,116.9-255
	c170-159,439.7-141,586.6,23.4c64,71.6,96.6,156.3,94.3,251.5c-2.7,112.5-50,205.7-136.7,278.2c-13,10.9-26.6,21.2-39.7,31.9
	c-1.4,1.2-2.8,4.6-2.1,5.7c1.9,3.4,4.4,7.2,7.6,9.1c3.5,2,8.1,2.3,12.4,2.8c6.3,0.8,12.7,1.1,19.1,1.6
	c756,54.8,1430.4,319.4,2025.7,787.1c89,69.9,173.5,145,255.4,223.1c9.2,8.8,19.1,16.9,28.8,25.2c3.7,3.2,14.6-1.2,15.2-6
	c1.6-14.8,3.4-29.5,5.1-44.3c15.3-135.8,85.1-235.8,205.5-297.1c135.3-68.8,272.6-64.7,403.9,11.3c115.2,66.7,177.5,170.4,186.8,303
	c5.3,76.4-15.9,148-57.7,212.6C5200.6-227,5119.4-172,5018-146.2c-54.4,13.8-109.5,16.7-165.1,8.1
	C4844.7-139.4,4836.3-140.3,4827.9-141.4z M-1431.2,2137.8c1.2,61.8,0.2,123.8,4,185.5c8.4,136.2,22.4,271.8,45.1,406.6
	c30.5,181.2,74.6,358.9,133.5,532.8c134,395.8,331.4,757.3,596.8,1080.5c422.2,514.1,947.5,879,1581.8,1084.7
	c240.5,78,487.1,125.7,738.9,145.2c140.4,10.9,281.2,13.4,422.2,5.7c147.3-8,293.1-24.9,438.1-51.3
	c221.1-40.2,435.3-103.6,643-188.9c364.8-149.7,692.7-358,984.1-623.4c414.7-377.6,718.9-830.3,914.5-1355.3
	c123.7-331.9,194.3-675.3,211.8-1029.4c10.8-217.8,3.8-434.8-24.8-651.1c-17.1-129.1-40.3-257-71.7-383.2
	c-70.5-282.6-173.4-552.9-312.2-809.3C4580-55.8,4172.4-492.3,3645.7-814.9c-525.2-321.7-1096.9-483.3-1713.6-484.6
	c-194.7-0.4-387.6,16.4-579.3,50.2c-189.5,33.4-374.7,82.5-554.9,149.6C177.8-868.6-330.5-486.5-730.1,39.7
	c-305,401.7-509.2,850.8-619.3,1342.8c-29.8,133.3-51.3,268.1-64.6,403.9C-1425.3,1903.1-1434.2,2020.2-1431.2,2137.8z
	 M5104.1,4771.5c-0.8-11.5-0.7-24.4-2.9-37c-11.2-66.3-43.1-119.8-101-155.4c-48.8-30-100.2-33.3-152.4-8.5
	c-19.3,9.1-37,21.2-51.9,36.7c-61.2,63.5-79.9,139-60.1,223.7c12,51.4,40,93.7,83.1,124.9c26.3,19,55.3,30.8,88.6,32.4
	c42.6,2,79.8-10.9,112.5-37.2C5076.7,4905.3,5102.8,4844.8,5104.1,4771.5z M-1875.4,2121.2c2.3-44.5-32-119.5-90.2-163
	c-58.2-43.4-138.2-44.1-196.3-0.8c-31.5,23.5-55,53.1-70.8,88.8c-20.5,46.3-24.9,95-14.6,143.8c13.8,65.4,48.1,118,109,149.5
	c34.9,18.1,71.6,25,111.1,14.1c29.5-8.1,55.4-21.8,77.6-42.3C-1901.7,2267.2-1878.6,2211.8-1875.4,2121.2z M6102.4,2140.2
	c-0.8-9.1-1-21.9-3.2-34.5c-10.8-61.5-40.3-112.1-92.5-147.1c-58.8-39.5-119.5-40.3-179.9-2.7c-10.8,6.7-21,14.7-30,23.7
	c-64.4,64.3-83,141.7-61.9,228.8c10.8,44.6,34.5,82.4,69.8,112c33.7,28.3,72,44.7,117.1,42.7c33.1-1.4,62.7-12.7,88.8-32
	C6073.5,2284.9,6102.2,2221.3,6102.4,2140.2z M2117.6-1847.7c0.2-89-30.5-155.2-83.3-197.1c-23.7-18.8-49.7-32.1-80.3-36.2
	c-57-7.6-105.7,9.7-145.1,50.2c-67.2,69.1-81.9,151.5-54,241.9c14.9,48.4,44.5,87.1,88.1,113.5c58.1,35.1,117.5,35.6,174.6-1.4
	C2085.6-1720.8,2114.6-1786.9,2117.6-1847.7z M-875.1,4760.3c-0.3-3.4-0.5-16.3-2.6-28.8c-10.5-64.3-42.2-115.7-97.4-150.7
	c-55.2-35-112.2-35.9-169.1-2.6c-34,19.9-60.1,47.6-77.8,82.5c-39.7,78-38.1,155.7,5.2,231.8c20.5,36,49.9,63.5,87.7,81.1
	c45.2,20.9,90.8,20.4,135.8-0.3c25.4-11.7,47-28.9,65.2-50.4C-890.8,4878.6-873.6,4827.3-875.1,4760.3z M-874.9-519.6
	c-0.5-6-0.5-21.1-3.4-35.6c-13.3-68.4-48.2-121.9-110.9-155.1c-29-15.3-60-20.3-92.7-16.2c-39.8,5-73,23-100.5,51
	c-56.2,57.1-77.1,126.7-64.1,204.9c9.7,58.6,38.3,107.9,87.5,143.4c20.9,15.1,43.6,25.9,69.6,29.8c56.8,8.7,105.4-8.1,146.1-47.2
	C-896.2-389.8-874.3-445.8-874.9-519.6z M5104-511.8c-0.8-11.1-0.6-24-2.7-36.5c-12.3-71-46.9-127-111.7-161.7
	c-28.9-15.5-60-20.6-92.7-16.6c-44.5,5.4-80.5,26.9-109.6,59.7c-53.1,60-69.9,130.8-53.2,208.1c12.5,58,43.3,105.9,95,138.2
	c18.2,11.3,37.3,19.7,58.9,23.1c54.1,8.3,101.3-6.1,141.5-42.4C5079.7-385.4,5103.3-442.8,5104-511.8z"/>
<path d="M-1063.4,7437.7c-41.7-5.7-135.1-7.7-223.5-4.4c-8.2,0.3-16.3,2.9-24.2,4.3c-17.2,43.7-20.3,88.8-28.5,132.6
	c-23.1,123.6-44.6,247.4-66.9,371.1c-1.1,6.1-3.3,12.4-6.4,17.8c-1.9,3.3-6,6.3-9.7,7.4c-6,1.8-12.5,2.6-18.9,2.6
	c-147.2,0.1-294.4,0.1-441.6,0.1c-2.1,0-4.3-0.1-6.4-0.1c-20.7-0.8-27.7-8.2-24.7-26.8c4.8-29.4,9.8-58.9,15.1-88.2
	c19.9-111.2,39.9-222.3,59.8-333.4c28.2-157.3,56.5-314.6,84.4-472c19.4-109.1,38-218.3,57.3-327.4
	c22.3-125.9,44.9-251.7,67.3-377.6c20.2-113.3,40.3-226.5,60.4-339.8c3-16.8,4.1-34,19.1-48.8c12.8-0.8,27.6-2.6,42.4-2.6
	c236.8-0.2,473.6-0.8,710.4,0.3c91.8,0.4,183.1,8,272.4,32.3c74.7,20.3,145,50.1,208.6,94.5c125.1,87.4,200.7,207.7,229.3,356.4
	c28.6,149.2,19.6,297.7-25.1,442.6c-62.8,203.5-190,354.7-379.5,453c-17,8.8-34.6,16.6-51.8,25c-17.1,8.3-20.3,18-11.2,36.1
	c25.9,51.4,52,102.7,78.1,153.9c60,117.8,120,235.4,179.9,353.2c8.7,17.1,16.5,34.6,24.5,52c3.8,8.3-2.4,16.4-12.4,17
	c-4.3,0.2-8.5,0.5-12.8,0.5c-153.6,0-307.2,0.1-460.8,0c-6.4,0-12.8-0.5-19.2-0.9c-9.3-0.5-16.2-5.6-20.6-13.2
	c-7.4-12.9-14-26.3-20.7-39.6c-67.9-135.2-135.6-270.6-203.8-405.7C-1035.6,7485.3-1045.6,7459.1-1063.4,7437.7z M-1133.7,6414.8
	c-29.7,166.2-59.8,333.7-89.5,501.3c-3.7,20.8-5.6,42-8.2,61.6c9.5,10.1,20.1,11.1,30.8,11.1c93.8,0,187.5,0.1,281.3-0.2
	c17-0.1,34-2.3,51-3.5c36.5-2.5,71.3-12.4,104.7-26.8c76.5-33,128.9-88.6,154.9-168.3c14-42.9,20.2-86.9,21.7-131.8
	c1.1-32.3-3.6-63.8-11.4-94.8c-14.2-56.9-47.8-99.1-100.1-125.8c-13.2-6.7-27.4-11.7-41.3-16.8c-38.6-14.1-79.2-16.5-119.7-17
	c-78.8-1-157.7-0.5-236.5-0.4C-1106.6,6403.2-1117.4,6403.1-1133.7,6414.8z"/>
<path d="M8019.1,7515.4c7.7,3.1,13.3,7.1,19.2,7.4c21.3,1.1,42.6,1.4,63.9,1.4c260.2,0.1,520.4,0,780.7,0.2c19,0,38,2,56.9,4
	c2.9,0.3,7,5.5,7.6,8.9c1.1,6,0.7,12.5-0.3,18.6c-10,58.8-20,117.6-30.5,176.3c-12.3,69.2-25,138.4-37.6,207.5
	c-1.1,6.2-2.5,12.7-5.2,18.3c-1.6,3.5-5.7,7.6-9.2,8.1c-12.6,1.8-25.4,3.1-38.1,3.1c-447.9,0.1-895.8,0.1-1343.8,0.1
	c-10.6,0-21.3-0.8-31.9-1.4c-4.6-0.3-11.2-8.8-10.5-13.9c2.3-19,3.9-38.1,7.2-57c29.5-167.8,59.2-335.7,89.1-503.4
	c26.6-148.9,53.8-297.7,80.3-446.6c28.7-161.5,56.7-323.1,85.4-484.6c23.1-130,47-260,70.5-390c6.1-33.5,12-67.1,18.3-100.6
	c2-10.6,11.2-17.7,23-18.2c17-0.7,34.1-1.2,51.1-1.2c420.2-0.1,840.4-0.1,1260.6,0c17,0,34.1,0.8,51.1,1.6
	c7.8,0.4,16.1,10.4,14.8,18c-5.8,35.7-11.5,71.5-17.9,107.1c-17.1,96.5-34.5,192.9-52,289.4c-1.1,6.2-3.1,12.3-5.3,20.7
	c-7.1,2-15,5.8-23,6.2c-19.1,1.1-38.4,0.7-57.6,0.7c-247.4,0-494.9,0-742.3,0.1c-19.2,0-38.4,0.1-57.5,1.1c-6,0.3-11.8,3.9-19.5,6.6
	c-5.2,24.7-10.9,49.5-15.5,74.5c-12.3,67.1-24.2,134.2-36.1,201.3c-1.8,10.5-2.8,21.1-3.8,31.7c-1.1,10.9,7,19.4,19.6,19.9
	c21.3,0.8,42.6,1.3,63.9,1.3c206.9,0.1,413.8,0,620.7,0.1c21.3,0,42.6,1,63.9,1.8c6.7,0.2,15.8,11.1,15.2,18
	c-1.3,14.8-1.8,29.8-4.3,44.5c-17.4,100.8-34,201.7-53.4,302.1c-11.5,59.4-2.8,58.6-67.6,58.6c-219.7,0.1-439.4,0-659.1,0.1
	c-21.3,0-42.7,0.4-63.9,2c-8.6,0.7-16.3,7.2-18.3,15.9c-6.2,27-11.6,54.1-16.6,81.3c-12.6,69.2-25,138.4-37,207.6
	C8021.7,7481.1,8020.9,7498.1,8019.1,7515.4z"/>
<path d="M6955,7966.8c-41.6,4.3-77.8,2-113.9,2.4c-34.1,0.4-68.3,0.1-102.4,0.1c-36.3,0-72.5,0-108.8,0c-34.1,0-68.3,0-102.4,0
	c-36.3,0-72.5,0-108.8,0c-36.3,0-72.5,0-108.8,0c-34.1,0-68.3,0-102.4,0c-36.3,0-72.5,0-108.8,0c-34.1,0-68.3,0-102.4,0
	c-36.3,0-72.5,0-108.8,0s-72.5,0-108.8,0c-34.1,0-68.3,0-102.4,0c-36.3,0-72.5,0-108.8,0c-34.1,0-68.3,1-102.4-0.3
	c-35.6-1.3-71.9,5.9-108.8-6.5c1.5-18.4,1.7-35.5,4.5-52.1c15-88.2,31.7-176.2,45.4-264.6c4.2-27.1,15.6-47.5,33.5-66.8
	c60.9-65.7,121.1-132.1,181.5-198.2c285-311.7,570-623.3,854.9-935c7.1-7.8,13.6-16.3,19.2-25.2c1.4-2.2-0.6-8.6-3-10.6
	c-2.9-2.4-7.9-2.9-12.1-3c-19.2-0.4-38.4-0.5-57.6-0.6c-236.8,0-473.6,0-710.5,0c-60.9,0-62.6,2.5-50.8-58.5
	c23-119.2,43.6-239,65.4-358.4c1.5-8.3,3.7-16.6,6.8-24.4c1.4-3.4,5.4-6.7,9-8.1c5.8-2.3,12.2-3.8,18.5-4c17-0.7,34.1-0.6,51.2-0.6
	c460.8,0,921.7,0,1382.5,0.1c21.3,0,42.6,1,63.9,1.9c6.6,0.3,15,11.9,13.8,18.9c-6.6,39.9-13.1,79.9-20.2,119.7
	c-13.1,73.4-26.6,146.7-39.9,220.3c-33.4,36.9-66.1,73.3-99.2,109.5c-312.3,341.6-624.7,683.1-936.9,1024.8
	c-15.7,17.2-30.2,35.5-45.3,53.4c-3.2,3.8,2.1,14.6,7.4,14.8c21.3,0.8,42.6,2,63.9,2c251.8,0.1,503.5,0,755.3,0.2
	c21.3,0,42.5,1.7,63.8,2.7c4.3,0.2,10.9,9.6,10.5,14.2c-0.4,4.2,0.2,8.6-0.5,12.7c-12.7,73.5-25.5,147-38.3,220.4
	c-8.1,46.2-15.9,92.4-24.4,138.5C6965,7925.1,6960.2,7943.7,6955,7966.8z"/>
<path d="M1599.1,7966.4c-11.1-18.7-13.7-37.7-17.1-56.3c-18.3-98.5-36.1-197-54-295.5c-1.1-6.3-1.9-12.7-3.2-18.9
	c-2.8-13.6-11.9-20.8-27.6-21.2c-17.1-0.5-34.1-0.5-51.2-0.5c-106.7,0-213.3,0-320,0c-98.1,0-196.3-0.1-294.4,0
	c-21.3,0-42.5,0.6-61.7,0.9c-18.8,13.1-25,32-33.8,48.6c-50.9,96.1-101.1,192.5-151.9,288.6c-9.9,18.7-16.9,39.4-35.3,55.3
	c-8.9,0.6-19.4,1.8-29.9,1.8c-153.6,0.1-307.2,0.1-460.8,0c-8.4,0-17-1-25.1-3.1c-2.6-0.7-6.4-7.4-5.5-9.7
	c5.5-13.7,11.5-27.5,18.8-40.3c80-140.9,160.4-281.6,240.6-422.3c277.7-487.1,555.3-974.1,833-1461.2c12.7-22.2,25.1-44.6,39.2-65.9
	c4.2-6.3,13.3-10.5,21-12.8c7.9-2.4,16.9-1.6,25.4-1.6c138.7-0.1,277.3-0.1,416,0c8.5,0,17,0.7,25.5,1.4c11,0.9,19,7.7,21.7,19.9
	c12.7,56.1,25.3,112.2,37.5,168.4c45.6,210.3,91.1,420.7,136.5,631.1c57.9,268.7,115.4,537.4,173.2,806.1
	c22.9,106.2,46.1,212.4,69.1,318.6c3.2,14.6,6,29.2,8.4,44c3.6,21.7-0.7,27.1-22.5,27.2c-113.1,0.2-226.1,0.2-339.2,0.3
	c-34.1,0-68.3,0.2-102.4-0.2C1619.1,7969,1608.7,7967.3,1599.1,7966.4z M1211.4,7156.8c59.7,0,119.3,0.2,179-0.2
	c12.6-0.1,25.3-2.1,37.9-3.4c4.3-0.4,11.1-9.5,10.6-14.2c-1.3-12.7-2.2-25.5-4.4-38c-7.1-39.8-14.9-79.5-22.2-119.3
	c-26.5-144.5-52.8-289-79.5-433.4c-1.1-6-4.6-11.6-7.5-17.1c-2.7-5-7.3-6-10.4-1.7c-7.4,10.2-14.9,20.4-20.8,31.5
	c-96.3,182.7-192.4,365.6-288.4,548.4c-4.9,9.4-8.6,19.4-12.8,29.1c-1.8,4.3,3.5,14.8,7.8,15.2c10.6,1.1,21.1,2.7,31.7,2.7
	C1092,7156.9,1151.7,7156.8,1211.4,7156.8z"/>
<path d="M-4562.9,5956.5c12.5,21,14.4,42.6,18.6,63.2c22.3,110.7,43.5,221.5,65.1,332.3c36.8,188.2,73.7,376.3,110.5,564.4
	c19.6,100.3,39.2,200.7,58.9,301c1.2,6.2,3.5,12.2,5.8,18.1c0.6,1.7,2.9,3.7,4.5,3.8c3.8,0.1,9.6,0.5,11-1.6
	c10.4-16,20.4-32.4,29.7-49.1c218.5-390.5,436.9-781.1,655.3-1171.7c4.2-7.4,8.1-15,12.3-22.4c25-43.3,24-42.2,69.3-42.2
	c140.8-0.1,281.5-0.1,422.3,0.1c10.6,0,21.2,1.5,31.7,2.5c5,0.5,10.8,10.3,8.6,14.6c-7.5,15.2-14.4,30.8-22.6,45.6
	c-109.9,197.4-220.1,394.6-330,591.9c-223.1,400.2-446,800.5-669.1,1200.7c-24.9,44.7-49.8,89.3-75.1,133.8
	c-5.2,9.1-12.1,17.2-17.5,24.8c-40.1,3-421.4,5-475.1,2.3c-6.1-0.3-12.2-2.7-17.6-4c-9.9-15.7-12.5-32.5-15.9-49.2
	c-41.3-204.6-83-409.2-124.2-613.8c-44.6-221.3-88.5-442.8-133.2-664.1c-36.2-179.6-73.2-359-109.6-538.5
	c-8.9-43.8-16.8-87.8-25.3-132.5c5.1-4.2,9.3-10.3,14.7-11.5c10.2-2.4,21.1-2.5,31.7-2.5c140.8-0.1,281.5-0.2,422.3,0.1
	C-4591.1,5952.5-4576.5,5955.1-4562.9,5956.5z"/>
<path d="M3939.5,7526.9c-2.4,19.6-3.8,38.8-7.3,57.5c-22.9,123.6-46.3,247.1-69.8,370.5c-0.7,3.8-4.6,7-8.1,12.1
	c-13.6,0.7-28.4,2.2-43.2,2.2c-430.9-0.3-861.8-0.7-1292.7-1.3c-3.9,0-7.8-3-11.6-4.6c-5.5-10.1-3.2-20.6-1.3-30.8
	c21.3-119.6,42.8-239.1,64-358.7c29.4-165.7,58.5-331.6,88.1-497.3c23.2-130,47.4-259.9,70.5-390c28.3-159.4,55.8-319,83.8-478.5
	c12.9-73.4,26.2-146.8,39.5-220.2c1.1-6.3,3.1-12.4,5.2-18.4c3-8.6,9.3-14.2,18.4-15.4c8.4-1.1,17-1.6,25.5-1.6
	c138.7-0.1,277.3-0.3,416,0.1c44.4,0.1,48.6,5.4,41,48.3c-17.7,100.7-35.8,201.4-53.7,302.1c-24.2,136.4-48.3,272.7-72.5,409.1
	c-28.4,159.4-57,318.8-85.2,478.2c-17.5,98.6-34.5,197.3-51.7,296c-0.7,4.2-0.8,8.5-1.2,12.7c-0.6,6.5,8.5,16.9,15.7,17.1
	c21.3,0.8,42.6,1.6,63.9,1.6c228.3,0.1,456.5,0,684.8,0.1c21.3,0,42.7,0.1,63.9,1.3C3927,7519.3,3932.5,7523.7,3939.5,7526.9z"/>
<path d="M4567.6,7969.3c-66.1,0-132.3,0-198.4-0.1c-10.6,0-21.3-0.5-31.9-1.1c-11.7-0.7-17.9-9.1-15.8-22.1
	c4.8-29.4,9.8-58.8,15-88.2c20.1-113.3,40.3-226.5,60.6-339.8c23.6-132.1,47.4-264.2,71-396.3c18.7-104.9,37.2-209.8,55.9-314.7
	c20.2-113.3,40.7-226.5,60.8-339.7c18.6-104.9,36.8-209.9,55.2-314.8c9.6-54.6,19.3-109.1,29-163.6c1.1-6.3,3.2-12.3,4.9-18.5
	c2.3-8,10.4-15.5,17.7-16.3c6.3-0.7,12.7-1.6,19.1-1.6c145-0.1,290.1,0,435.1,0.1c6.3,0,13.3,0.1,18.7,2.6
	c5.1,2.4,10.9,7.7,12.1,12.7c1.8,8,0.9,17-0.5,25.2c-17.7,100.7-35.8,201.4-53.8,302.1c-19.5,109-39.1,218.1-58.5,327.1
	c-23.5,132.2-46.8,264.4-70.2,396.5c-28.9,163.7-57.8,327.3-86.8,491c-25.3,142.6-50.8,285.3-76.3,427.9c-1.1,6.2-2.6,12.7-5.6,18.2
	c-2.9,5.3-6.7,11.1-14.2,11.4c-12.7,0.6-25.5,1.8-38.2,1.8C4704.1,7969.4,4635.8,7969.3,4567.6,7969.3z"/>
<path d="M-3040.2,7963.1c4.9-31.7,8.8-61.2,14-90.4c19.7-111.2,39.8-222.3,59.7-333.4c28.2-157.3,56.4-314.5,84.4-471.8
	c18.7-104.9,37-209.8,55.5-314.7c23.8-134.3,47.7-268.5,71.5-402.8c19.4-109.1,38-218.3,58.2-327.2c14.2-76.6,4.9-70.3,83.6-70.5
	c121.6-0.3,243.2-0.2,364.7,0c17,0,34,1.3,51,2.4c7.5,0.5,15,10.3,14.3,18.4c-1.3,14.8-2.2,29.8-4.7,44.5
	c-9,52.5-18.7,104.9-28.1,157.3c-19.2,107-38.5,213.9-57.5,320.9c-23.5,132.1-46.7,264.4-70.1,396.5
	c-19.7,111.2-39.5,222.3-59.4,333.4c-19.5,109.1-39.3,218.1-58.6,327.1c-19,107-37.7,214-56.5,321c-0.4,2.1-0.5,4.2-1,6.3
	c-23,102.7,4.4,88.3-105.6,89c-117.3,0.8-234.6,0.3-351.9,0C-2995.7,7969.1-3015,7972-3040.2,7963.1z"/>
<path d="M-19.2,8537.6c12.3-0.2,16.8-7.2,20.5-14.3c22.8-43.3,45.3-86.7,68.1-130c10.9-20.7,21.7-41.4,33.1-61.9
	c8.8-15.9,22.2-17.8,38.5-10.2c1.2,5.8,3.5,11.9,3.5,18.1c0.3,93.6,0.4,187.3,0.2,280.9c0,6.2-1.8,12.4-3,18.6
	c-1.2,6.4-10.7,10.4-21,9.9c-7.7-0.3-12.9-5.8-13.3-11.2c-1.8-23.3-2.2-46.7-2.6-70c-0.8-42.5-1.3-85-2.2-127.5c0-1-3-2.4-4.7-2.7
	c-1.8-0.3-4.7-0.4-5.7,0.7c-4.2,4.6-8.8,9.1-11.7,14.5c-22.1,41.3-43.6,82.8-65.7,124.1c-5,9.3-11.2,17.9-17,26.8
	c-4,6.1-18.7,6.6-22.8,0.8c-4.9-6.9-10.1-13.6-14.1-21c-20.2-37.4-39.9-75.2-60.1-112.6c-5-9.2-11.4-17.5-17.5-26
	c-0.9-1.3-3.9-1.9-5.6-1.5c-1.9,0.4-4.8,2-5.1,3.5c-1.7,8.1-3.8,16.4-3.9,24.6c-0.4,42.6-0.1,85.1-0.4,127.7
	c-0.1,12.7-0.5,25.6-2.8,38.1c-1,5.2-5.4,11-13.4,11.6c-10.3,0.7-19.7-3.1-21.3-9.6c-1-4-3.1-8-3.1-12.1
	c-0.1-97.9-0.1-195.7,0.2-293.6c0-4,2.4-7.9,3.7-11.9c25-5.6,30.2-4.7,38,9.8c27.3,50.5,54.1,101.3,81.2,152
	C-39.2,8501.6-28.8,8520.1-19.2,8537.6z"/>
<path d="M2383.3,8481.8c0,51.1,0.1,102.1-0.1,153.2c0,8-8.5,13.9-17.8,14.5c-9,0.5-17.3-1.8-23.2-8.1c-7.3-7.7-13.3-16.6-19.5-25.2
	c-38.4-53.6-76.7-107.4-115.2-161c-6.2-8.6-12.8-16.9-20.2-24.4c-2-2.1-7.5-1.1-11.4-0.8c-1.4,0.1-3.7,2.5-3.8,4
	c-1,10.6-2,21.2-2.1,31.7c-0.2,46.8,0,93.7-0.3,140.5c-0.1,10.6-0.4,21.4-2.7,31.6c-1.3,5.6-6.3,10.4-13.8,11
	c-10.7,0.8-20-2.6-21.5-8.8c-1-4-3-8.1-3-12.1c-0.1-97.9,0-195.8,0.3-293.7c0-5.9,1.8-12.2,8.6-15.4c5.8-2.7,21.5-2.2,24.7,1.3
	c5.6,6.3,11.5,12.5,16.4,19.3c39.8,55.3,79.4,110.7,119.2,166c7.4,10.3,15.8,20,23.8,29.9c3,3.7,6.8,4.2,11.1,1
	c1.5-1.1,3.3-2.9,3.5-4.5c1.3-10.5,3-21,3.1-31.5c0.4-46.8,0-93.7,0.4-140.5c0.1-10.5,1.5-21.1,3-31.5c1.1-7.4,7.7-10.1,13.7-11.3
	c16-3.1,27,4,27.1,18c0.4,48.9,0.1,97.9,0.1,146.8C2383.6,8481.8,2383.4,8481.8,2383.3,8481.8z"/>
<path d="M3023.5,8477c0-46.9-0.2-93.8,0.3-140.7c0.1-5.6,3.9-11.6,7.3-16.6c2.8-4.1,20.7-3.8,24.4,0c7.4,7.5,15.1,14.8,21.2,23.3
	c40,55.3,79.5,111,119.4,166.3c7.4,10.3,16.1,19.7,24.5,29.3c0.8,1,3.7,0.6,5.5,0.2c2-0.4,5.4-1.1,5.6-2.3
	c1.9-8.2,4.2-16.6,4.3-24.9c0.5-42.7,0.2-85.3,0.4-128c0.1-17,0.7-34.1,1.6-51.1c0.5-10.5,10.1-17.1,23.2-15.7
	c5.9,0.7,13.1,1.4,15,9.2c1.5,6.1,3.4,12.4,3.4,18.6c0.2,91.7,0.2,183.4,0.2,275.1c0,4.3-0.5,8.5-0.8,12.8
	c-1,12.4-16.4,20.8-28.9,15.7c-3.9-1.6-8.5-2.8-11.2-5.7c-7.1-7.9-13.6-16.3-19.8-24.9c-41-57.2-81.8-114.5-123-171.6
	c-4.9-6.7-11.4-12.3-17.5-18.1c-1-0.9-3.8-0.5-5.6,0c-1.9,0.5-5,1.7-5.2,2.9c-1.3,8.4-2.6,16.9-2.7,25.3c-0.3,46.9,0,93.8-0.3,140.8
	c-0.1,12.8-0.2,25.7-2.1,38.2c-0.8,5.6-4.7,12.2-12.2,12.6c-6.2,0.3-12.8,0.7-18.6-1.1c-3.2-1-6.5-6.3-7.1-10
	c-1.6-10.5-2.3-21.2-2.4-31.8c-0.2-42.7-0.1-85.3-0.1-128C3022.9,8477,3023.2,8477,3023.5,8477z"/>
<path d="M5711.7,8549.6c-18.2,0-33.1,0.1-47.9,0c-36-0.2-40.3,5.7-40.9,40.4c-0.2,14.9-1,29.8-1.8,44.7
	c-0.4,6.6-10.2,14.1-18.4,14.8c-11.6,1-22.5-6.7-23.3-16.6c-0.7-8.5-1.3-17-1.3-25.5c-0.1-83.2-0.1-166.4,0-249.6
	c0-8.5,1-17,1.8-25.5c0.7-7.7,9-14.9,17.5-15.6c2.1-0.2,4.2-0.7,6.3-0.7c34.1,0,68.3,0,102.4,0c17.4,0,33.7,5.2,49.5,11.6
	c27.2,11.1,47.3,30.6,55.7,58.2c15.1,49.6,13,97.1-27.9,135.8c-4.6,4.4-10,8-14.7,12.3c-5.9,5.5-7.1,15.6-2.5,23.3
	c8.7,14.6,17.9,29,26.7,43.6c6.6,10.9,13.2,21.9,19.5,33c4.1,7.2-2.9,15.1-13,16.2c-11.6,1.4-22.1-1.6-28.5-10.6
	c-12.3-17.4-22.8-36-34.4-53.9C5729.9,8575.1,5722.3,8564.8,5711.7,8549.6z M5622.9,8429.5c-0.3,0-0.5,0-0.8,0
	c0.9,21.1,1.2,42.2,3.3,63.1c0.5,4.8,6.7,12.4,11.1,13.1c29.3,4.4,59.2,5.1,88.2-1.1c11.6-2.5,24-9.9,32.1-18.7
	c19.8-21.5,26.1-47.4,16.9-76.3c-8.5-26.8-26.3-42.6-53.6-47.9c-8.3-1.6-16.6-3.5-25-3.6c-72.7-1-72.6-6.7-72.2,65.1
	C5622.9,8425.3,5622.9,8427.4,5622.9,8429.5z"/>
<path d="M5191.7,8483.5c-0.6-39.6,11.6-75.2,34.2-107.5c48.8-69.5,140.2-77,199.6-45.3c24.9,13.3,45,32.3,58.6,57.1
	c35.5,64.8,36.5,130.4-1,194.3c-56.3,96-195.6,98.1-258.4,9.2C5206,8564.8,5189.6,8520.7,5191.7,8483.5z M5347.3,8611.7
	c45.9,0.8,78.8-18.5,100.8-56.9c27.3-47.6,23-113.4-10.3-156.2c-40.1-51.5-116.1-61.2-167.2-7.5c-43.7,45.9-48.2,123.7-9.1,176.2
	C5283.2,8596.3,5312.1,8611.8,5347.3,8611.7z"/>
<path d="M612.3,8316.2c19.1,0,38.4-1.2,57.4,0.2c75.7,5.6,130.9,56.8,142.9,131.3c6.6,40.8,4.4,80.7-13.9,118.4
	c-24.2,49.8-64.4,79.1-119.6,83.1c-42.3,3.1-85,1.2-127.5,1.2c-11.2,0-21.2-9.1-21.3-19.1c-0.4-97.8-0.5-195.6-0.6-293.3
	c0-4.1,1-8.7,3.1-12.1c2.1-3.3,6.1-7.5,9.4-7.7c23.3-1.7,46.6-2.4,70-3.5C612.3,8315.3,612.3,8315.7,612.3,8316.2z M570.6,8485.4
	c0.5,0,1.1,0,1.6,0c0,34-0.2,68.1,0.1,102.1c0.1,12.5,8,21.5,18.6,21.7c25.5,0.3,51.2,2.1,76.5-0.3c46.2-4.2,78.9-28.5,96.2-72.4
	c12.3-31,12.4-62.7,3.6-93.9c-12.7-44.8-42.4-72.8-88.9-81.3c-29.5-5.4-59.2-5.2-88.9-1.5c-7.2,0.9-16.1,9.8-16.3,17.2
	C572.2,8413.1,571.4,8449.3,570.6,8485.4z"/>
<path d="M2056.7,8480.2c-0.1,36.7-5.6,65.7-19.7,92.6c-55.7,106.1-200.2,110.1-265,17.5c-43.3-61.8-42.6-155.4,2.8-215.6
	c28.3-37.6,65.9-58,113.8-61.2c100.4-6.8,159.6,71.3,166.2,141.4C2055.7,8465.5,2056.4,8476.1,2056.7,8480.2z M2013.9,8488.8
	c1.3-34.5-7.8-64.7-28.4-90.4c-51-63.8-139.2-53.7-178.9,7.8c-31.5,48.9-32.4,100.6-3.7,150.8c21.7,38,56.1,56.3,100.7,54.8
	c45-1.6,75.9-24.6,95.8-63.1C2009.2,8529.8,2015.1,8509.2,2013.9,8488.8z"/>
<path d="M-1701,8482.7c-1.5-37.8,8.4-72,29.8-102.6c30-42.8,70.6-65,123.7-66.9c83.7-3,140.8,55.8,157,122.8
	c12.1,49.9,7,97.4-18,141.8c-59.1,105.3-209.8,103-268.7,2C-1694.7,8549.4-1702.6,8517.1-1701,8482.7z M-1428.9,8487.4
	c2.6-34.5-8.2-65.9-31-93.2c-36.6-43.7-109.7-59.3-163.1-3.9c-45.4,47.1-48.3,122.7-10.3,176.2c43.3,61.1,141.7,62.1,183.7-5.7
	C-1435.9,8538.7-1427.8,8515-1428.9,8487.4z"/>
<path d="M4244.6,8539.9c-1.9,13,5,21.5,10.3,30.6c12.8,21.9,25.5,43.9,38.2,65.9c2.6,4.6-3.4,12.3-9.7,13.2c-11,1.6-21.8,0.9-29-8.4
	c-9.1-11.7-16.9-24.4-25.2-36.8c-9.4-14.2-18.1-28.8-28.1-42.5c-3.5-4.8-9.9-9.5-15.4-10.3c-23.2-3.1-46.7-4.7-69.6,1.7
	c-5.6,1.5-10.9,6.6-11.3,14c-1,21.2-1.8,42.4-2.8,63.6c-0.6,13.7-12.8,22-27.2,17.2c-3.6-1.2-7.2-4-9.4-7c-2.3-3.3-3.8-7.7-3.8-11.7
	c-0.2-97.8-0.2-195.6,0.1-293.4c0-11.5,8.6-19.4,20.5-19.5c34-0.4,68.1-1.6,102.1-0.3c83.7,3.3,126.4,61.2,114.1,141.8
	c-3.3,21.8-11.5,40.9-26.8,56.6C4262.6,8523.8,4253,8532.1,4244.6,8539.9z M4103,8430.8c0,6.3,0,12.7,0,19
	c-0.4,62.4-0.4,58.3,59.3,58.4c10.6,0,21.2-0.3,31.7-1.3c36.6-3.8,61.3-30.4,62.8-67.5c0.3-6.3,0.1-12.7-0.5-19
	c-2.5-26.5-19.8-49-45-55.4c-16.2-4.1-33.2-6.7-49.9-7.2c-57.6-1.5-58.7,1.3-58.4,53.9C4103,8418.2,4103,8424.5,4103,8430.8z"/>
<path d="M238.2,8479.7c0-42.6-0.1-85.2,0.1-127.8c0-6.3,1-12.7,1.7-19c0.8-8,8.6-15.8,17.1-15.8c59.6,0,119.2,0.1,178.7,0.4
	c7.1,0,14,9.6,14,18.4c0,8.9-6.1,18.2-13.4,18.7c-16.9,1.2-33.9,2.3-50.9,2.8c-27.7,0.8-55.3,1-83,1.8c-8,0.2-16.8,8.5-17.4,16
	c-1,12.7-2,25.4-2,38.1c0,44.5,1.8,46.2,46.5,47c27.7,0.5,55.4,0.9,83,1.8c10.1,0.3,18.2,12.3,15.8,23.5c-1.3,5.9-3.5,12.8-11.1,14
	c-10.4,1.6-20.9,3.1-31.5,3.4c-25.5,0.7-51.1,0.4-76.7,1c-16,0.4-24.9,8.2-25.2,22.2c-0.4,21.3-0.3,42.5,0.1,63.8
	c0.2,11.5,8.2,19,20.6,19.2c38.3,0.5,76.7,0.5,115,1.1c8.3,0.1,16.6,2,24.8,3.5c6.5,1.1,9.3,10.1,8.7,21.5
	c-0.4,8-6.3,10.8-11.5,13.6c-3.5,1.9-8.3,1.9-12.5,1.9c-53.3,0.2-106.5,0.2-159.8,0.2c-4.2,0-8.4-0.9-12.6-1.5
	c-7.2-0.9-16.7-9.7-17-16.6c-0.8-21.3-1.5-42.5-1.7-63.8c-0.3-29.8-0.1-59.6-0.1-89.4C238.1,8479.7,238.1,8479.7,238.2,8479.7z"/>
<path d="M4372.9,8482.1c0-42.6-0.1-85.1,0.1-127.7c0-8.5,0.4-17.2,2.7-25.2c1.6-5.6,6.2-11.2,13.6-11.5c14.8-0.7,29.7-1.9,44.6-1.8
	c44.7,0.2,89.4,0.6,134.1,1.4c11.1,0.2,16.7,9.3,16.3,22.5c-0.3,7.7-5.3,12.9-10.7,14c-12.4,2.6-25.2,3.4-37.9,3.7
	c-31.9,0.9-63.8,0.9-95.7,1.7c-10.6,0.3-20.1,9.8-20.2,20.6c-0.2,21.2,0.2,42.5,0.8,63.7c0.2,7.5,8.8,15.1,17.3,15.4
	c19.1,0.8,38.3,1.2,57.4,1.7c17,0.5,34,0.6,51,1.5c13.2,0.7,21.4,15.3,15.8,28c-1.6,3.5-4.7,7.9-8,8.8c-8,2.4-16.5,3.9-24.8,4.1
	c-29.8,0.9-59.6,0.9-89.4,1.7c-11.8,0.3-19.2,8.3-20.1,20.2c-0.5,6.4-1.1,12.7-1.1,19.1c0.4,69.4-6.9,66.2,64.8,66.2
	c29.8,0,59.6,0.5,89.4,1.3c10.9,0.3,16.8,9.7,16.1,22.5c-0.4,7.4-5.1,11.1-10.4,14.5c-1.7,1.1-4,1.4-6.1,1.4
	c-59.6,0.2-119.1,0.4-178.7,0.2c-10.6,0-19.5-9.8-19.6-21.1c-0.3-48.9-0.1-97.9-0.1-146.8
	C4373.5,8482.1,4373.2,8482.1,4372.9,8482.1z"/>
<path d="M2733.2,8482.7c0-49-0.2-97.9,0.1-146.9c0.1-11.4,8.6-19.3,20.7-19.3c57.5-0.1,115,0.1,172.5,0.5c10.5,0.1,16.3,9.8,15.8,23
	c-0.3,7.7-5.3,12.8-10.8,13.9c-12.4,2.5-25.3,3.2-37.9,3.4c-31.9,0.7-63.9,0.4-95.8,1.1c-14,0.3-23.1,10.2-23.3,25.1
	c-0.3,19.1,0.2,38.3,0.7,57.4c0.2,7.7,8.5,16.5,16.2,17.1c12.7,1.1,25.4,2,38.1,2.3c25.5,0.7,51.1,0.7,76.6,1.7
	c13.4,0.5,21.1,14.8,15.4,28.1c-1.5,3.5-4.8,8.1-8,8.7c-12.4,2.2-25.1,3.7-37.7,4.2c-27.6,1.1-55.3,1.1-82.9,2
	c-7.8,0.2-17.3,9-17.3,16.1c-0.1,25.5,0,50.9,0.9,76.4c0.1,3.2,4.8,7.9,8.2,8.8c8.1,2.2,16.7,3.3,25.1,3.4
	c34.1,0.4,68.2,0.1,102.3,0.4c8.4,0.1,16.9,1.4,25.3,2.4c6.6,0.8,11.2,10.5,10.8,20.6c-0.3,7.3-4.7,11.3-10.1,14.7
	c-1.7,1.1-4,1.6-6.1,1.6c-59.6,0.3-119.2,0.6-178.8,0.6c-11.1,0-19.8-9.1-19.9-20.5c-0.3-49-0.1-97.9-0.1-146.9
	C2733.1,8482.7,2733.1,8482.7,2733.2,8482.7z"/>
<path d="M-680.1,8572.5c-48.7-5.7-99.2-4.2-147-1.1c-21,19-23.1,43.6-33.6,64c-8.3,16-20.8,18.1-43.7,5.4c3.9-11.6,7.3-23.8,12-35.5
	c34-84.8,68.2-169.5,102.4-254.2c3.2-7.9,7.1-15.4,10.8-23c4.2-8.6,11.9-11.3,20.8-11.9c11.1-0.8,21.6,0.9,28,10.9
	c4.5,7.1,7.4,15.3,10.6,23.1c35.2,86.6,70.3,173.2,105.3,259.9c3.2,7.8,5.1,16.2,7.5,24.3c2.4,8-4.3,15.2-14.4,15.7
	c-11.2,0.5-21-1.8-26.7-12.7C-659,8616.8-662.4,8592.6-680.1,8572.5z M-757.1,8383.7c-17.5,32.2-43.6,94.7-53.5,128.4
	c-0.6,1.9-0.9,4.5-0.1,6c1.7,3.4,3.9,8.6,6.6,9.1c31.2,5.6,62.7,4.3,94.1,0.9c6.9-0.7,12.4-11.8,9.2-20.2
	c-14-37.4-28.1-74.8-43-111.8C-745.8,8391-752.5,8387.9-757.1,8383.7z"/>
<path d="M4853.2,8570.8c-55.7-1-106.3-5.5-156.9,2.9c-10.2,22.7-19.7,44-29.5,65.1c-4.1,8.8-14.1,12.3-27.5,10.5
	c-6.8-0.9-12.5-7.3-11.3-12.4c1.5-6.2,2.2-12.6,4.5-18.4c37.2-92.6,74.5-185.2,112-277.8c2.4-5.8,5.9-11.2,9.2-16.6
	c7.2-11.7,38.3-10.5,45.2,1.7c2.1,3.7,4.6,7.2,6.1,11.1c38.3,94.5,76.5,189,114.5,283.6c2.3,5.8,3.7,12.3,3.7,18.5
	c0,3.2-3.5,8.1-6.6,9.2c-13.6,5.2-29,0.8-33.5-9.3C4873.6,8617.7,4864.4,8596.3,4853.2,8570.8z M4774.8,8383.5
	c-2.8,2.9-6.8,5.3-8.2,8.8c-15.7,39.1-31.2,78.4-46.4,117.7c-3.3,8.6,2.4,18.7,10.5,18.8c29.5,0.2,59,0.2,88.5-0.1
	c7.8-0.1,14-10.7,10.8-18.9c-15.2-39.3-30.6-78.5-46.3-117.6C4782.3,8388.6,4777.8,8386.4,4774.8,8383.5z"/>
<path d="M985.5,8642.9c0.9-5.6,0.9-12,3.1-17.6c38.6-96.7,77.4-193.3,116.4-289.9c7-17.2,15.4-21.5,35.5-18.6
	c5.6,0.8,11.8,4.5,15.7,8.7c4.2,4.4,6.6,10.9,9,16.7c37.5,92.6,74.8,185.2,112.1,277.9c2.3,5.8,4.1,12.2,4.2,18.4
	c0.1,3.1-3.5,8-6.5,9.2c-13.6,5.5-28.4,1.2-33.7-8.9c-1-1.9-2.4-3.5-3.2-5.5c-31.9-75-13-62.7-101.9-64.2c-6.4-0.1-12.8-0.1-19.1,0
	c-69.5,0.9-59.6-7.5-86.5,58.7c-0.8,2-1.6,3.9-2.5,5.9c-6.8,15-15.5,18.3-36.9,13.5C989.4,8647,988,8644.9,985.5,8642.9z
	 M1138.6,8383.8c-6.7,4.6-13.8,6.9-16,11.5c-7.3,15.3-12.6,31.5-19,47.2c-40.9,99.9-37.1,87.4,62.5,87.8c4.2,0,8.4-1,12.6-1.4
	c5.1-0.5,12.2-8.8,10.8-13.2C1175.4,8471.3,1158.7,8427.8,1138.6,8383.8z"/>
<path d="M-1863,8313.7c38-0.7,67.1,3.6,92.9,21c6.2,4.2,8.8,12.8,6.5,22.9c-2,8.7-11.7,16.3-18.1,14c-10-3.5-20-7.3-29.9-11.2
	c-20.5-8.1-41.6-7.7-62.9-5.2c-13.1,1.6-24.3,7.9-34,16.3c-22.2,19.1-19.7,57.2,5.5,71.1c14.7,8.1,31,13.5,46.9,19.2
	c20,7.2,40.8,12.2,60.2,20.5c34.9,14.9,52.3,42.6,51,80.5c-1.3,37.1-18.3,66.6-52.8,80.6c-57.2,23.3-112.4,16.2-163.3-19.4
	c-7.5-5.3-10.3-19.6-4-28.6c3-4.4,11-9.1,15.4-8c10.1,2.6,19.2,8.5,28.8,13.1c30,14.5,61.4,16.4,93.3,9.3c8-1.8,15.9-6.2,22.5-11
	c23.8-17.5,22.8-55.8-2.4-70.4c-14.6-8.4-30.7-14.2-46.6-20c-19.9-7.2-41-11.7-60.4-20.1c-39.5-17.1-57.6-50.9-52.1-92.4
	c5.1-38.8,34.5-71,73.2-79C-1880.9,8314.4-1868,8314.2-1863,8313.7z"/>
<path d="M3966.4,8579.8c5.8,4.1,11.7,6.9,15.9,11.4c5.8,6.1,5.7,18.8,1.2,23.5c-29.9,31.5-68.3,43.6-109.9,41.2
	c-62.4-3.6-108.5-34.6-134.1-92.6c-25.6-58.1-23.6-116.6,7-171.9c27.7-50.1,71.4-76.9,130-78c37.6-0.8,71.3,8.2,100.3,33.2
	c13.3,11.5,13.2,25.7-1.7,37c-2.9,2.2-8.4,4.2-11,2.9c-9.5-4.6-18.1-10.9-27.3-16.2c-64.2-37.3-139.4-1.5-161.4,62
	c-14.5,41.9-13.1,83.8,8.9,123.3c32.7,58.7,104.3,68.7,149.3,43.9C3944.7,8593.5,3955.3,8586.5,3966.4,8579.8z"/>
<path d="M-1170.9,8313.3c26.9-0.8,60.3,9.9,88.4,36c10.6,9.8,10.8,22-1.9,32c-4.3,3.4-12.5,5.9-17,4.1c-9.6-3.9-17.7-11.5-27-16.5
	c-62.8-34.1-125.1,1.6-149.3,43.4c-27,46.7-24,114.1,8.5,156.8c31.5,41.3,90.4,55.1,137.6,31.9c9.5-4.7,18-11.2,27.2-16.6
	c5.7-3.3,16.2-0.3,22.9,6c7.4,6.8,8.8,16.6,3.6,22.4c-32.8,36-74.9,47.9-121.4,42.4c-62.7-7.5-105-43.1-127.9-101.4
	c-19.7-50-18.6-100.5,4.3-148.8C-1295,8346.3-1248.7,8313.3-1170.9,8313.3z"/>
<path d="M1477.4,8486.2c-0.4,18.1,3.3,34.4,9.2,50.7c25.3,70.7,105.7,93.6,162.2,60.5c9-5.3,18.3-10.1,27.7-14.4
	c6.3-2.9,23.5,11.4,22.5,18.7c-0.5,4.1-1.9,8.7-4.5,11.7c-5.5,6.4-11.2,13.1-18.1,17.5c-87.3,56.1-207.2,17.3-236.1-96.3
	c-8.5-33.4-8.7-67.8,0.1-101.1c13.2-49.8,41.4-89.2,90.6-108.2c57.5-22.2,112.5-17.8,160.5,25.1c4.7,4.2,8.4,9.6,6.4,16.7
	c-2.4,8.6-7.5,15.4-15.8,18.7c-3.4,1.4-8.6,1-11.8-0.7c-11.2-6-21.4-13.8-32.7-19.5c-54.2-27.6-118.3,2.7-142.6,48
	C1482.6,8436.5,1475.7,8460.8,1477.4,8486.2z"/>
<path d="M2561.9,8316.8c34.1,0,68.2-0.2,102.2,0.1c11.1,0.1,16.1,8.8,16,22.6c-0.1,7.8-5.1,13.2-10.3,14.3
	c-12.4,2.6-25.3,2.6-38,3.6c-12.7,1-25.5,1.2-38,3.5c-5.7,1.1-11.7,5.6-12.3,12.9c-1,12.7-2.3,25.4-2.3,38.1
	c-0.2,61.8,0,123.6-0.2,185.3c0,12.8-0.2,25.6-2.1,38.2c-0.8,5.5-4.4,12.4-12.3,12.4c-6.2,0-12.8,0.3-18.4-1.7
	c-3.1-1.1-6.1-6.6-6.5-10.3c-1.4-12.7-2-25.5-2.1-38.2c-0.2-57.5,0-115-0.1-172.6c0-14.9-0.3-29.8-0.9-44.7
	c-0.4-10.6-9.6-20.6-19.9-21.2c-14.9-1-29.8-1.1-44.6-2c-8.5-0.5-17.4-0.4-25.2-3.2c-5.3-1.8-10-7.1-9.9-14.7
	c0-11,3.7-19.9,10.3-20.8c8.3-1.2,16.7-2.7,25.1-2.8c29.8-0.3,59.7-0.1,89.5-0.1C2561.9,8316.1,2561.9,8316.5,2561.9,8316.8z"/>
<path d="M3432.6,8506.5c0-40.4,0.3-80.9-0.1-121.3c-0.2-18.1-9.1-26-28.2-27c-19.1-1-38.3-1.5-57.3-2.8
	c-11.3-0.7-18.7-20.6-11.7-30.5c1.1-1.6,2.7-3.2,4.5-4c3.8-1.7,7.8-4.1,11.7-4.1c68.1-0.3,136.3-0.3,204.4-0.2c4,0,8,2,12,3.3
	c7.6,2.5,7.8,9.6,8.3,15.6c0.5,6.2-0.5,13.3-7,16.3c-5.6,2.6-11.8,4.6-17.9,5c-19.1,1.4-38.2,1.7-57.3,2.7c-8,0.4-16.7,8.6-17.2,16
	c-0.9,14.8-1.8,29.7-1.9,44.5c-0.2,61.7,0,123.5-0.2,185.2c0,10.6-1.2,21.2-2.1,31.7c-0.5,6-11.7,12.8-20.2,12
	c-6.5-0.6-13-2.4-14.9-9.2c-2.2-8-3.7-16.5-3.8-24.8c-0.4-36.2-0.2-72.4-0.2-108.6C3433.1,8506.5,3432.9,8506.5,3432.6,8506.5z"/>
<path d="M5023.9,8501c0-40.4,0.2-80.9-0.1-121.3c-0.1-10.9-9.2-20-20.2-20.6c-21.2-1.3-42.4-2.1-63.6-3.5
	c-10.6-0.7-17.4-11.2-16-22.8c0.8-6.9,4.4-12.1,10.6-14.1c5.9-1.9,12.5-2.6,18.7-2.7c61.8-0.2,123.5-0.2,185.3,0
	c6.2,0,12.4,1.8,18.6,2.8c6.7,1.2,10.3,9.6,10.2,20.8c0,7.7-4.8,12.9-10.1,14.7c-7.8,2.7-16.7,2.5-25.2,3c-14.8,0.9-29.7,1.1-44.6,2
	c-7.8,0.5-16.8,8.8-17.4,16.2c-1.1,12.7-2.4,25.4-2.4,38.1c-0.3,61.7,0,123.5-0.3,185.2c-0.1,12.7-1.4,25.4-2.5,38.1
	c-0.5,5.6-12.6,12.8-19.9,12.5c-8.3-0.4-18.2-8-18.7-14.4c-0.6-8.5-1.6-17-1.6-25.5c-0.2-36.2-0.1-72.4-0.1-108.6
	C5024.5,8501,5024.2,8501,5023.9,8501z"/>
<path d="M-548.5,8486.2c0-42.5-0.2-85.1,0.1-127.6c0.1-10.5,0.8-21.3,3.2-31.5c1.4-5.8,6.9-9.9,14.2-10.1
	c9.9-0.3,20.2,4.2,20.8,10.4c1.2,12.6,2.7,25.3,2.7,37.9c0.3,63.8,0,127.6,0.2,191.4c0,12.7,0.1,25.6,2.3,38.1
	c0.9,4.9,7.4,11.9,11.9,12.4c18.9,2.1,38.1,2.2,57.2,2.8c25.5,0.8,51,1,76.5,2c9.8,0.4,16.4,12.8,13,24.5c-1,3.6-3.9,7.2-7,9.4
	c-3.3,2.3-7.7,4.1-11.7,4.1c-55.2,0-110.5-0.2-165.7-0.6c-7.7-0.1-15.9-8.6-16.1-16.5c-0.7-38.2-1.2-76.5-1.7-114.7
	C-548.7,8507.5-548.6,8496.9-548.5,8486.2C-548.5,8486.2-548.5,8486.2-548.5,8486.2z"/>
<path d="M-959.3,8487.1c0,42.3,0.2,84.7-0.2,127c-0.1,8.3-1.8,16.7-3.6,24.8c-1.6,7.3-8.5,9.1-14.4,10.3c-9,1.8-19.7-3.5-21.4-9.4
	c-1.1-4-3.2-8-3.2-12.1c-0.1-97.3-0.1-194.7,0.2-292c0-14,11.6-21.6,26.6-18.5c6.1,1.3,12.3,4.3,13.3,11.5
	c1.4,10.4,2.6,20.9,2.7,31.4C-959.1,8402.4-959.2,8444.7-959.3,8487.1C-959.3,8487.1-959.3,8487.1-959.3,8487.1z"/>
<path d="M887.6,8481.4c0-48.9-0.1-97.8,0.1-146.7c0-9.7,6.5-16.5,14.7-17.3c13.7-1.4,22.8,3.9,23.8,14.2c0.8,8.5,1.7,16.9,1.7,25.4
	c0.1,85.1,0.1,170.1,0,255.2c0,8.4-0.1,17.2-2.5,25.2c-1.6,5.5-5.9,10.7-13.6,11.3c-11.1,0.8-20.3-2.1-21.5-8.6
	c-1.5-8.2-3.6-16.5-3.7-24.8c-0.4-44.7-0.2-89.3-0.2-134C886.9,8481.4,887.2,8481.4,887.6,8481.4z"/>
<path d="M878.3,2144.2c0-411.7,0-823.4,0.1-1235c0-29.8-0.3-59.4,5.3-89.2c9.7-51.6,31.2-97.1,63.4-138
	c25.3-32.1,55.5-58.9,89.4-81.7c51.9-34.9,108.6-58.6,169.1-73.9c112.5-28.5,224.2-25.1,334.5,10.2c59.4,19,113.2,48.9,162.4,87.6
	c95.5,75.2,191.7,149.6,287.7,224.3c435.9,339.5,871.8,679,1307.7,1018.6c15.1,11.8,30.9,23,45,36c18.8,17.3,37.7,34.8,54.1,54.3
	c60.2,71.2,80.5,153.7,64.8,245.1c-8.1,47.3-30.3,88.4-59.1,126.2c-22.2,29-49,53.3-77.8,75.7c-57.3,44.5-114.4,89.1-171.7,133.7
	c-471.2,367.1-942.4,734.2-1413.6,1101.2c-15.1,11.8-30.4,23.4-45.5,35.3c-57.9,45.7-123.7,75.8-194.8,93
	c-121.4,29.2-241.3,21.8-358.6-21.9c-46.2-17.2-89.2-40.7-128.4-70.8c-27.2-20.9-51.2-45.1-71.7-72.6
	c-39.5-52.9-60.3-112.3-62.1-178.2c-0.5-19.2-0.2-38.4-0.2-57.6C878.3,2959,878.3,2551.6,878.3,2144.2z M1195.9,2146
	c0,407.2,0,814.4,0,1221.6c0,21.3,0.2,42.6,0.6,63.9c0.4,22.4,9,42,24.3,57.6c11.8,12,25.2,23.2,39.7,31.6
	c51.7,30,142.7,34.4,200.6-8.9c17.1-12.8,34-25.8,50.8-38.9c378.5-294.8,756.9-589.6,1135.4-884.4
	c141.3-110.1,282.7-220,423.8-330.2c18.5-14.4,38-28.2,53.4-45.6c37.9-42.9,36.4-89.7,0.5-132.9c-5.4-6.5-12.1-12.1-18.6-17.5
	c-11.5-9.5-23.3-18.7-35-27.9C2549.9,1628.2,2028.5,1222,1507.1,815.8c-15.1-11.8-30-24-45.8-34.9c-53.1-36.4-110.7-40.5-171-21.9
	c-22.8,7-43.2,18.3-60.5,34.6c-21,19.8-33.8,43.6-33.7,73.3c0.1,19.2-0.2,38.4-0.2,57.6C1195.9,1331.7,1195.9,1738.9,1195.9,2146z"
	/>
</svg>
