<svg xmlns="http://www.w3.org/2000/svg" width="375" height="677" viewBox="0 0 375 677"><rect width="100%" height="100%" fill="#333333"/><path fill="#FFFFFF" d="M193.945 423.425h62.88q6.78 0 10.76 3.81 3.99 3.81 3.99 10.08v25.09h-168.15v-13.9q0-4.24 1.78-8.9t5.68-8.39l74.41-74.58q9.32-9.49 16.7-18.13 7.37-8.65 12.29-17.12 4.91-8.48 7.54-17.21 2.62-8.73 2.62-18.39 0-8.81-2.54-15.51-2.54-6.69-7.2-11.27-4.66-4.58-11.19-6.86-6.52-2.29-14.66-2.29-7.46 0-13.81 2.12-6.36 2.11-11.28 5.93-4.91 3.81-8.3 8.9-3.39 5.08-5.09 11.18-2.88 7.8-7.45 10.34-4.58 2.55-13.23 1.19l-22.03-3.9q2.54-17.63 9.83-30.93 7.29-13.31 18.22-22.21t25.09-13.39q14.15-4.49 30.42-4.49 16.95 0 31.02 5t24.07 14.15q10 9.16 15.59 22.04 5.6 12.88 5.6 28.64 0 13.56-3.99 25.09-3.98 11.53-10.67 22.04-6.7 10.5-15.68 20.34-8.99 9.83-18.82 20l-55.25 56.44q7.96-2.37 15.84-3.64 7.89-1.27 15.01-1.27Z"/></svg>