<svg xmlns="http://www.w3.org/2000/svg" width="375" height="677" viewBox="0 0 375 677"><rect width="100%" height="100%" fill="#333333"/><path fill="#FFFFFF" d="m131.9 288.16-22.03-3.9q2.54-17.63 9.83-30.93 7.29-13.31 18.22-22.21T163 217.73q14.16-4.49 30.43-4.49 16.95 0 30.59 4.83 13.65 4.83 23.31 13.39 9.66 8.56 14.83 20.09 5.17 11.52 5.17 24.91 0 11.7-2.63 20.6-2.62 8.9-7.54 15.51-4.91 6.61-12.2 11.18-7.29 4.58-16.44 7.63 22.03 6.95 32.88 21.19 10.85 14.24 10.85 35.76 0 18.31-6.78 32.38-6.78 14.07-18.31 23.64-11.52 9.58-26.7 14.5-15.17 4.91-32.12 4.91-18.47 0-32.2-4.24-13.73-4.23-23.9-12.54-10.17-8.3-17.29-20.34-7.12-12.03-12.2-27.8l18.47-7.62q7.29-3.06 13.65-1.61 6.35 1.44 9.23 6.86 3.06 5.93 6.7 11.7 3.64 5.76 8.73 10.25 5.08 4.49 11.95 7.29 6.86 2.8 16.36 2.8 10.67 0 18.64-3.48 7.97-3.47 13.31-9.07 5.34-5.59 7.96-12.46 2.63-6.86 2.63-13.81 0-8.81-1.86-16.02-1.87-7.2-7.8-12.29-5.93-5.08-17.04-7.96-11.1-2.88-29.74-2.88V320.7q15.42-.17 25.59-2.88t16.19-7.54q6.02-4.83 8.39-11.61 2.37-6.78 2.37-14.92 0-17.29-9.66-26.27t-25.76-8.98q-7.46 0-13.73 2.12-6.27 2.11-11.27 5.93-5 3.81-8.39 8.9-3.39 5.08-5.09 11.18-2.88 7.8-7.54 10.34-4.66 2.55-13.14 1.19Z"/></svg>