<svg xmlns="http://www.w3.org/2000/svg" width="375" height="677" viewBox="0 0 375 677"><rect width="100%" height="100%" fill="#333333"/><path fill="#FFFFFF" d="m248.855 214.595-72.71 88.99-8.48 10.51q7.12-3.56 15.34-5.51 8.22-1.95 17.72-1.95 13.9 0 27.03 4.58 13.14 4.57 23.14 13.81t16.1 22.97q6.1 13.73 6.1 32.03 0 17.12-6.27 32.13-6.27 15-17.63 26.18-11.35 11.19-27.37 17.63-16.02 6.44-35.34 6.44-19.66 0-35.26-6.27-15.59-6.27-26.61-17.54t-16.86-27.12q-5.85-15.85-5.85-35.17 0-17.29 7.03-35.51 7.04-18.23 21.78-37.89l58.48-78.48q3.05-4.06 8.9-6.95 5.85-2.88 13.47-2.88h37.29Zm-63.22 213.57q10 0 18.39-3.39t14.41-9.49q6.02-6.1 9.41-14.32 3.39-8.22 3.39-17.88 0-10.51-3.22-18.9-3.22-8.39-9.16-14.24-5.93-5.85-14.23-8.9-8.31-3.05-18.31-3.05-10 0-18.14 3.39-8.13 3.39-13.9 9.41-5.76 6.01-8.98 14.23-3.22 8.22-3.22 17.72 0 10.17 2.8 18.56 2.79 8.39 8.3 14.32 5.51 5.93 13.65 9.24 8.13 3.3 18.81 3.3Z"/></svg>