<svg xmlns="http://www.w3.org/2000/svg" width="375" height="677" viewBox="0 0 375 677"><rect width="100%" height="100%" fill="#333333"/><path fill="#FFFFFF" d="M187.5 431.05q10.34 0 18.14-2.97 7.79-2.96 13.13-8.22 5.34-5.25 8.05-12.54 2.72-7.29 2.72-15.77 0-20.17-11.19-30.51-11.19-10.33-30.85-10.33-19.66 0-30.85 10.33-11.19 10.34-11.19 30.51 0 8.48 2.72 15.77 2.71 7.29 8.05 12.54 5.34 5.26 13.13 8.22 7.8 2.97 18.14 2.97Zm0-186.28q-9.32 0-16.1 2.88-6.78 2.88-11.27 7.71-4.5 4.83-6.61 11.1-2.12 6.28-2.12 13.22 0 7.29 1.78 14.16 1.78 6.86 6.01 12.2 4.24 5.34 11.19 8.56 6.95 3.22 17.12 3.22 10.17 0 17.12-3.22 6.95-3.22 11.19-8.56 4.23-5.34 6.01-12.2 1.78-6.87 1.78-14.16 0-6.94-2.2-13.22-2.2-6.27-6.61-11.1t-11.19-7.71q-6.78-2.88-16.1-2.88Zm41.36 88.48q22.37 7.29 33.05 22.29 10.68 15 10.68 36.69 0 16.27-6.19 29.5-6.18 13.22-17.37 22.54-11.19 9.32-26.87 14.41-15.68 5.08-34.66 5.08-18.98 0-34.66-5.08-15.68-5.09-26.87-14.41-11.19-9.32-17.37-22.54-6.19-13.23-6.19-29.5 0-21.69 10.68-36.69 10.68-15 33.05-22.29-17.8-7.46-26.69-21.19-8.9-13.73-8.9-33.05 0-13.9 5.68-25.94 5.67-12.03 15.84-20.93t24.33-13.9q14.15-5 31.1-5 16.95 0 31.1 5 14.16 5 24.33 13.9 10.17 8.9 15.84 20.93 5.68 12.04 5.68 25.94 0 19.32-8.9 33.05-8.89 13.73-26.69 21.19Z"/></svg>