<svg xmlns="http://www.w3.org/2000/svg" width="375" height="677" viewBox="0 0 375 677"><rect width="100%" height="100%" fill="#333333"/><path fill="#FFFFFF" d="m168.68 252.565-8.64 51.02q8.13-1.69 15.59-2.46 7.46-.76 14.41-.76 19.32 0 34.07 5.76 14.74 5.77 24.75 15.94 10 10.17 15.08 23.81 5.09 13.65 5.09 29.41 0 19.49-6.87 35.59-6.86 16.11-19.07 27.55-12.2 11.44-28.9 17.71-16.69 6.27-36.36 6.27-11.52 0-21.86-2.37t-19.41-6.36q-9.07-3.98-16.78-9.15-7.71-5.17-13.81-10.93l12.88-17.8q4.07-5.76 10.68-5.76 4.23 0 8.64 2.71t10.09 5.93q5.68 3.22 13.39 5.93 7.71 2.72 18.56 2.72 11.52 0 20.34-3.73 8.81-3.73 14.66-10.43 5.85-6.69 8.81-15.93 2.97-9.24 2.97-20.09 0-20-11.61-31.27t-34.32-11.27q-17.46 0-35.77 6.44l-26.1-7.46 20.34-118.99h121.02v17.8q0 8.98-5.59 14.58-5.6 5.59-18.99 5.59h-67.29Z"/></svg>